<?xml version="1.0" standalone="no"?>
<!DOCTYPE svg PUBLIC "-//W3C//DTD SVG 20010904//EN"
 "http://www.w3.org/TR/2001/REC-SVG-20010904/DTD/svg10.dtd">
<svg version="1.0" xmlns="http://www.w3.org/2000/svg"
 width="633.000000pt" height="394.000000pt" viewBox="0 0 633.000000 394.000000"
 preserveAspectRatio="xMidYMid meet">
<metadata>
Created by potrace 1.16, written by Peter Selinger 2001-2019
</metadata>
<g transform="translate(0.000000,394.000000) scale(0.100000,-0.100000)"
fill="#000000" stroke="none">
<path d="M1958 3563 l-3 -88 -87 -3 -88 -3 0 -169 0 -170 -85 0 -85 0 -2 -172
-3 -173 -82 -3 -83 -3 0 -254 0 -255 -85 0 -85 0 0 -345 0 -345 -90 0 -90 0 0
-430 0 -429 88 -3 87 -3 3 -85 3 -85 82 0 82 0 3 -87 3 -88 169 0 170 0 0 -40
0 -40 260 0 260 0 0 40 0 40 430 0 430 0 0 -40 0 -40 260 0 260 0 0 40 0 40
520 0 520 0 0 30 0 30 85 0 85 0 0 70 0 70 85 0 84 0 3 88 3 87 88 3 87 3 -2
427 -3 427 -87 3 -88 3 0 84 0 85 -170 0 -170 0 0 -85 0 -85 -85 0 -85 0 0
-84 0 -83 46 -7 c26 -3 64 -6 85 -6 l39 0 0 -255 0 -255 -260 0 -260 0 0 330
0 330 -85 0 -85 0 0 345 0 345 -85 0 -85 0 0 255 0 254 -87 3 -88 3 -3 173 -2
172 -85 0 -85 0 0 170 0 170 -85 0 -84 0 -3 88 -3 87 -85 0 -85 0 -1 -85 -2
-85 -86 -3 -86 -3 0 -84 0 -85 -345 0 -345 0 0 85 0 85 -85 0 -85 0 0 90 0 90
-85 0 -84 0 -3 -87z m172 -263 l0 -170 85 0 85 0 0 -85 0 -85 345 0 345 0 0
85 0 85 84 0 84 0 7 170 7 170 79 0 79 0 0 -127 c0 -71 3 -185 7 -255 l6 -128
83 0 84 0 2 -172 3 -173 80 0 80 0 5 -175 5 -175 83 -3 82 -3 0 -169 0 -170
-170 0 -170 0 0 -85 0 -85 90 0 90 0 0 -85 0 -85 165 0 165 0 0 -75 0 -75
-165 0 -165 0 0 -80 0 -79 83 -3 82 -3 3 -87 3 -88 79 0 80 0 0 -85 0 -85 -80
0 -79 0 -3 -87 -3 -88 -73 -3 -73 -3 3 -94 c2 -71 0 -95 -9 -95 -10 0 -13 61
-13 270 l0 270 -90 0 -90 0 0 -330 0 -330 -85 0 -85 0 0 260 0 260 -90 0 -90
0 0 -200 0 -200 -427 0 -428 0 0 197 0 198 -87 3 -88 3 -2 -258 -3 -258 -82
-3 -83 -3 0 346 0 345 -90 0 -90 0 0 -202 0 -203 -82 0 -83 0 -3 -82 -3 -83
-84 0 -85 0 0 170 0 170 85 0 85 0 0 85 0 85 -170 0 -170 0 0 90 0 90 85 0 85
0 0 85 0 85 85 0 85 0 0 85 0 85 -85 0 -85 0 0 175 0 175 85 0 85 0 2 342 3
341 81 -2 82 -2 7 175 7 176 78 0 77 0 6 122 c4 66 7 181 7 255 l0 133 85 0
85 0 0 -170z m2930 -1800 l0 -100 -81 0 c-72 0 -81 2 -86 20 -5 18 -14 20 -89
20 l-84 0 0 80 0 80 170 0 170 0 0 -100z m0 -505 l0 -245 -85 0 -85 0 0 -70 0
-70 -85 0 -85 0 0 -30 c0 -29 -2 -30 -45 -30 l-45 0 0 95 0 95 45 0 45 0 0 90
0 90 85 0 85 0 0 153 c0 85 3 157 7 160 3 4 42 7 85 7 l78 0 0 -245z m-600
-350 l0 -95 -200 0 -200 0 0 95 0 95 200 0 200 0 0 -95z"/>
<path d="M2040 2670 l0 -90 90 0 90 0 0 90 0 90 -90 0 -90 0 0 -90z"/>
<path d="M2530 2645 l0 -85 -85 0 -85 0 0 -90 0 -91 88 3 87 3 3 83 3 82 79 0
80 0 0 -85 0 -85 90 0 90 0 0 90 0 90 -85 0 -85 0 0 85 0 85 -90 0 -90 0 0
-85z"/>
<path d="M3050 2640 l0 -90 90 0 90 0 0 90 0 90 -90 0 -90 0 0 -90z"/>
</g>
</svg>
